<?xml version="1.0" standalone="no"?>
<!DOCTYPE svg PUBLIC "-//W3C//DTD SVG 1.1//EN" "http://www.w3.org/Graphics/SVG/1.1/DTD/svg11.dtd" >
<svg xmlns="http://www.w3.org/2000/svg">
<metadata></metadata>
<defs>
<font id="rangerregular" horiz-adv-x="1122" >
<font-face units-per-em="2048" ascent="1536" descent="-512" />
<missing-glyph horiz-adv-x="917" />
<glyph horiz-adv-x="0" />
<glyph unicode="&#xd;" horiz-adv-x="917" />
<glyph horiz-adv-x="0" />
<glyph horiz-adv-x="0" />
<glyph unicode=" "  horiz-adv-x="917" />
<glyph unicode="&#x09;" horiz-adv-x="917" />
<glyph unicode="&#xa0;" horiz-adv-x="917" />
<glyph unicode="!" horiz-adv-x="546" d="M0 596v16l10 2t21.5 11.5t21.5 29t13 54.5v761q0 18 11 25.5t19 7.5h248q2 0 10 -1t15 -9q4 -4 7 -9t3 -16v-6v-749q0 -57 27 -84q14 -14 36 -17v-18h-2q-4 0 -14 -3t-20.5 -14.5t-18.5 -32t-8 -52.5v-43q0 -18 -11.5 -25.5t-21.5 -7.5h-240h-8q-2 0 -9 1t-15 9t-8 25v51 q-2 14 -4.5 26.5t-6.5 22.5q-4 6 -6 11t-6 9q0 2 -4 7q-14 10 -27 14q-8 2 -12 4zM66 35v248q0 18 9 25t21 7h248q31 0 35 -34v-248q0 -18 -11.5 -25.5t-21.5 -7.5h-240h-8q-2 0 -9 1t-15 9t-8 25z" />
<glyph unicode="&#x22;" horiz-adv-x="884" d="M0 1221v247q0 20 11.5 26.5t21.5 6.5h246q2 0 10 -1t16 -9t8 -25v-6v-241q0 -102 -21.5 -162t-50 -90.5t-61.5 -39.5t-53 -9h-35h-24h-2h-5q-2 0 -6 4t-4 8v102q0 8 4 11.5t8 3.5q53 0 67.5 29.5t16.5 70.5v6q0 20 -12 27.5t-26 7.5h-3h-65h-6q-2 0 -10.5 1t-16.5 9 t-8 23zM436 1221v247q0 20 12.5 26.5t20.5 6.5h248q2 0 9 -1t15 -9q4 -4 7.5 -9t3.5 -16v-6v-241q0 -102 -21.5 -162t-50.5 -90.5t-61.5 -39.5t-53.5 -9h-2h-33h-26h-2h-4q-2 0 -6 4q0 2 -2.5 3t-2.5 5v102q0 8 5.5 11.5t9.5 3.5q53 0 67.5 29.5t16.5 70.5v6 q0 20 -12.5 27.5t-28.5 7.5h-68h-6q-2 0 -9 1t-16 9q-4 4 -7 8t-3 15z" />
<glyph unicode="$" horiz-adv-x="1038" d="M-2 35v248q0 18 12.5 24t20.5 6h344v133h-68q-2 0 -18.5 1.5t-41 5.5t-55 14t-61.5 29q-10 4 -17.5 10t-15.5 12q-100 82 -100 234l2 446q0 113 46 174.5t103.5 90t104.5 33.5t49 5h72v72q0 18 11 25.5t22 7.5h110q4 0 8 -2t17 -11q8 -8 8 -22v-6v-62h41h280q2 0 9.5 -2 t15.5 -8q4 -4 7 -9t3 -16v-6v-241q0 -18 -12 -24.5t-21 -8.5h-323v-428h96q2 0 19.5 -1t43 -9.5t56.5 -23.5t59 -42q4 -6 9.5 -11t9.5 -11q63 -78 63 -209v-148q0 -76 -21.5 -127t-55 -86t-72.5 -53.5t-73 -26.5t-57 -10l-24 -2h-53v-70q0 -20 -11.5 -26t-19.5 -6h-104h-6 q-14 0 -24.5 8t-10.5 24v29v41h-336h-6q-2 0 -9.5 1t-15.5 9q-10 10 -10 25zM285 895q0 -72 30 -102q6 -10 25 -17q2 -2 18.5 -8t16.5 4v416q-41 -4 -65.5 -32t-24.5 -112v-149zM551 313h20q27 0 46.5 13.5t21.5 48.5v16q0 25 -22.5 40t-43.5 15h-22v-133z" />
<glyph unicode="%" horiz-adv-x="1081" />
<glyph unicode="'" horiz-adv-x="438" d="M0 1221v247q0 20 11.5 26.5t21.5 6.5h246q2 0 10 -1t16 -9t8 -25v-6v-241q0 -102 -21.5 -162t-50 -90.5t-61.5 -39.5t-53 -9h-35h-24h-2h-5q-2 0 -6 4t-4 8v102q0 8 4 11.5t8 3.5q53 0 67.5 29.5t16.5 70.5v6q0 20 -12 27.5t-26 7.5h-3h-65h-6q-2 0 -10.5 1t-16.5 9 t-8 23z" />
<glyph unicode="," horiz-adv-x="440" d="M0 35v248q0 18 11.5 24t21.5 6h246q2 0 10 -1t16 -9t8 -22v-9v-239q0 -102 -21.5 -162.5t-50 -91.5t-61.5 -40t-53 -9h-35h-24h-2h-5q-2 0 -6 4t-4 10v102q0 8 4 10.5t8 2.5q53 0 67.5 30.5t16.5 69.5v6q0 23 -12 29t-26 6h-3h-65h-6q-2 0 -10.5 1t-16.5 9t-8 25z" />
<glyph unicode="." horiz-adv-x="442" d="M0 35v248q0 18 11.5 24t21.5 6h246q2 0 10 -1t16 -9t8 -22v-9v-239q0 -20 -11 -26.5t-19 -6.5h-242h-6q-2 0 -10.5 1t-16.5 9t-8 25z" />
<glyph unicode="/" horiz-adv-x="1169" d="M-20.5 28.5q-2.5 10.5 6.5 26.5v2l698 1420q2 8 10 16q6 6 14.5 11t24.5 5h271q16 -2 26 -6t17.5 -11.5t3.5 -23.5q0 -4 -4 -16h-3l-696 -1419q-2 -8 -10 -17q-6 -6 -15.5 -11t-23.5 -5h-272h-7q-6 0 -15 3t-16 9t-9.5 16.5z" />
<glyph unicode="0" horiz-adv-x="1148" d="M16 594v16l10 2q11 2 23 12.5t22.5 31t10.5 59.5v483q0 76 22.5 127t56.5 85t72.5 52.5t72.5 27.5t56 11l23 2h297q2 0 25.5 -2t57.5 -10t71.5 -27.5t72.5 -52.5q4 -4 9.5 -10t9.5 -10q61 -78 61 -195v-483q0 -41 15.5 -71t50.5 -32v-16h-4q-4 0 -14.5 -4t-20.5 -14.5 t-18.5 -31t-8.5 -55.5v-184q0 -76 -22.5 -127t-56 -86t-72.5 -53.5t-73 -26.5t-57 -10l-24 -2h-297q-2 0 -21.5 1t-49 8t-65.5 21.5t-69 41.5q-4 4 -10 9t-10 9q-80 80 -80 217v185q0 33 -10 59q-4 4 -6.5 9t-6.5 9q-2 2 -2 3t-2 3q-18 14 -26 17q-8 2 -13 2zM395 354 q0 -18 11 -28q4 -4 12 -8.5t35 -4.5h180q2 0 22.5 6.5t20.5 36.5v791v2q0 16 -10 27q-4 4 -10.5 6t-10.5 4q-6 2 -10 2h-197l-7 -1q-7 -1 -15 -4t-14.5 -12.5t-6.5 -23.5v-793z" />
<glyph unicode="1" horiz-adv-x="636" d="M-35 1388.5q-2 8.5 2 18.5q6 10 19 16l190 76q2 0 6 2t8 2h248q2 0 9.5 -2t15.5 -10q4 -4 7 -8t3 -15v-6v-749q0 -57 27 -84q10 -10 22 -15q8 -4 10 -4h5v-16h-2q-4 0 -14.5 -4t-21 -14.5t-18.5 -31t-8 -55.5v-456q0 -20 -12 -26.5t-21 -6.5h-241h-6q-2 0 -9.5 1t-15.5 9 q-4 4 -7 9.5t-3 15.5v467q0 14 -2 26.5t-6 22.5q-4 4 -6.5 9t-6.5 9t-4 6q-18 14 -27 17q-8 2 -12 2v16l10 2q11 2 22 11.5t21.5 29t10.5 56.5v389v57l-56 -22q-2 -2 -8 -3q-14 -2 -21 5.5t-12 13.5l-94 229q0 2 -2 10.5z" />
<glyph unicode="2" horiz-adv-x="1024" d="M0 35v254q0 29 8 47t8 20q137 135 250 265q49 55 97.5 113.5t88.5 115.5t69.5 111.5t41.5 97.5q4 16 8 36.5t-6 41.5q-10 25 -36.5 39t-75.5 14h-412h-10q-8 0 -19.5 7t-11.5 26v247q0 14 8 23q8 6 15.5 8t9.5 2h569q2 0 27.5 -2t63.5 -12t80 -32.5t75 -63.5 q27 -35 42 -81t15 -112q0 -88 -21.5 -172t-56 -160.5t-80 -147.5t-90.5 -130q-111 -141 -247 -260q-2 -6 -2 -13q4 -4 12 -4h452q2 0 10.5 -1t16.5 -9t8 -22v-9v-239q0 -20 -11 -26.5t-22 -6.5h-843q-2 0 -8.5 1t-14.5 9t-8 25z" />
<glyph unicode="3" horiz-adv-x="1064" d="M33 35v248q0 18 11 24t22 6h520q14 0 28.5 11.5t14.5 31.5v50v2q0 18 -10.5 28t-24.5 10h-406h-6q-2 0 -10 1.5t-14 9.5q-4 4 -7.5 8t-3.5 14v248q0 20 11.5 26.5t21.5 6.5h43h363l7 1t15 4t14.5 11t6.5 25v346v2q0 16 -11 27q-8 10 -18 11t-12 1h-273h-239h-8q-4 0 -9 2 q-4 2 -8 3t-8 5q-8 8 -8 25v247q0 18 11 25.5t20 7.5h249h322q2 0 24.5 -2t56.5 -11t72.5 -28.5t73.5 -52.5q4 -4 9.5 -10t9.5 -10q59 -78 59 -193v-483q0 -53 -17.5 -77t-35.5 -34q12 -6 20 -14q33 -33 33 -92v-4v-7v-180q0 -98 -34 -156.5t-81 -91t-95 -44t-73 -13.5h-20 h-326h-239h-6q-2 0 -10.5 1t-16.5 9t-8 25z" />
<glyph unicode="4" d="M47 776v694q0 18 12.5 24.5t20.5 6.5h248q2 0 9 -1t15 -9q4 -4 7 -9t3 -14v-8v-635q0 -20 11 -28q4 -6 18 -11q6 -2 10 -2h2h199q4 0 10 2q14 4 21 11q10 10 10 26v647q0 18 11.5 24.5t19.5 6.5h2h246h2q10 0 21 -6t11 -25v-10v-747q0 -37 14.5 -70t49.5 -33v-16h-2 q-4 0 -14.5 -4t-20.5 -15.5t-18.5 -32t-8.5 -53.5v-458q0 -18 -11 -24.5t-21 -6.5h-240h-8q-2 0 -9.5 1t-15.5 9t-8 23v397v4q-4 18 -10 25q-10 6 -21 10q-6 2 -10 2h-248q-2 0 -21.5 1t-49 8t-65.5 21.5t-68 41.5q-14 8 -21 18q-82 82 -82 215z" />
<glyph unicode="5" horiz-adv-x="1064" d="M33 35v248q0 18 11 24t22 6h419q31 0 56.5 1t44 12.5t30 35t11.5 70.5v21v12q0 29 -7.5 43t-23.5 35q-23 27 -66 29.5t-86 2.5h-2h-149h-2q-59 0 -109.5 4.5t-85.5 26.5q-41 27 -58.5 84.5t1.5 169.5l106 613q10 23 20.5 26.5t12.5 3.5h248h2l4 -2l475 2q2 0 9.5 -2 t15.5 -8q4 -4 7 -9t3 -16v-6v-241q0 -18 -12 -24.5t-21 -8.5h-428q-8 0 -26.5 -8.5t-28.5 -42.5l-41 -211q-4 -16 0 -22.5t8 -10.5q6 -4 15 -4h225q2 0 18.5 -1t41 -5t55 -15.5t61.5 -29.5q45 -27 72 -62q55 -68 61 -170v-301q0 -76 -22.5 -127t-56.5 -86t-72.5 -53.5 t-72.5 -26.5t-58 -10l-23 -2h-563h-6q-2 0 -10.5 1t-14.5 9q-4 4 -7 9.5t-3 15.5z" />
<glyph unicode="6" horiz-adv-x="1142" d="M45 594v14l9 2t20.5 10.5t20.5 26t14 47.5v56v448q0 96 34.5 154.5t81.5 90.5t94.5 44t71.5 14q4 0 8 1t9 1h6h297q2 0 24.5 -2t56 -10t71.5 -26.5t73 -51.5q6 -6 11 -12t9 -10q59 -78 60 -195v-125q0 -18 -11.5 -24.5t-19.5 -6.5h-250q-12 0 -22.5 9.5t-10.5 25.5v72v2 q0 18 -10 29q-6 4 -18 8q-6 2 -10 2h-199l-7 -1q-7 -1 -15.5 -4t-14.5 -12.5t-6 -23.5l2 -363h41h248q2 0 24.5 -1t56 -10t71.5 -27.5t73 -51.5q6 -4 11 -10t9 -10q59 -78 60 -195v-174q0 -76 -21.5 -127t-55.5 -86t-73 -53.5t-72.5 -26.5t-57.5 -10l-23 -2h-297h-6 q-8 0 -15 2q-27 2 -80 15.5t-104 54.5q-8 6 -15.5 12t-13.5 14q-74 76 -73 209v191q-2 16 -4.5 29.5t-6.5 23.5q-4 4 -5 9t-5 9l-6 6q-18 14 -27 17q-8 2 -12 2zM424 354q0 -18 10 -28q4 -4 10.5 -6.5t10.5 -4.5q6 -2 10 -2h199q16 0 28.5 10.5t12.5 30.5v76v6q0 16 -11 23 q-6 6 -18 10q-6 2 -10 2h-199l-7 -1q-7 -1 -15.5 -4t-14.5 -12.5t-6 -23.5v-76z" />
<glyph unicode="7" horiz-adv-x="1021" d="M18 28.5q-2 10.5 7 28.5l544 1106q2 4 5.5 11.5t0.5 11.5q-4 4 -20 4h-489h-7q-2 0 -10 1t-14 9q-10 10 -10 23v247q0 20 12 26.5t20 6.5h844q2 0 9.5 -1t13.5 -9q10 -10 10 -25v-6v-282q0 -14 -3 -26.5t-7 -23.5l-11 -20l-526 -1077q-2 -8 -10 -17q-6 -6 -15.5 -11 t-23.5 -5h-272h-7q-6 0 -15 3t-16.5 9t-9.5 16.5z" />
<glyph unicode="8" horiz-adv-x="1040" d="M0 303v182v7v4q4 61 33 90q4 6 10 9t10 7q-16 8 -34.5 32.5t-18.5 78.5v483q0 133 80 213q33 33 71.5 52.5t72.5 27.5t57.5 10t25.5 2h293q2 0 25.5 -2t57.5 -10t72 -27.5t72 -52.5q4 -6 9.5 -11t9.5 -12q61 -74 61 -190v-483q0 -53 -18.5 -78t-34.5 -33q4 -4 9 -7t11 -9 q31 -31 31 -90v-4q2 -2 2 -7v-62.5v-57t-1 -43t-1 -19.5h2h-2h2q0 -96 -34.5 -154.5t-82 -91t-95.5 -44t-72 -13.5h-21h-297h-22q-27 4 -80 16.5t-103 53.5q-41 33 -70.5 88t-29.5 145zM344 354q0 -29 17.5 -35t23.5 -6h8h137q33 0 33 29v12v52q0 18 -10 28q-4 6 -12.5 8 t-12.5 2h-57h-18h-17h-57q-4 0 -12.5 -2t-14.5 -8q-8 -8 -8 -28v-44v-8zM344 801q0 -29 17.5 -35t23.5 -8h8h119h8q2 0 22.5 6t20.5 37v346q0 18 -10 29q-4 4 -10 6t-11 4q-6 2 -10 2h-12h-115h-10q-2 0 -12.5 -1t-18.5 -11q-10 -8 -10 -29v-346z" />
<glyph unicode="9" horiz-adv-x="1097" d="M39 856v342q0 76 21.5 127t55.5 86t72.5 53.5t72.5 26.5t56.5 10t24.5 2h297h6q4 0 7 -1t7 -1q14 -2 40 -6t55.5 -15.5t60.5 -28.5t57 -46q4 -6 13 -14q61 -78 61 -195l2 -489q-2 -41 19.5 -69t44.5 -28v-10v-4l-10 -2q-11 -2 -23 -10.5t-21.5 -25.5t-9.5 -48v-53v-152 q0 -96 -34.5 -154.5t-82 -91t-94.5 -44t-71 -13.5q-8 -2 -17 -2h-4h-299q-2 0 -21.5 1t-49 8t-65.5 21.5t-69 41.5q-4 4 -10 9t-10 9q-80 80 -80 217v86q0 18 11 25.5t20 7.5h247q2 0 10.5 -2t16.5 -8q4 -4 6 -9.5t2 -15.5v-6v-31q0 -18 11 -28q4 -4 10 -6.5t10 -4.5 q6 -2 10 -2h197q2 0 22.5 6.5t20.5 36.5v193h-291q-2 0 -21.5 1t-49 8t-65.5 21.5t-69 41.5q-4 4 -10 9t-10 9q-80 80 -80 217zM352 897q4 -16 10 -23q4 -4 10.5 -6t10.5 -4q6 -2 10 -2h197q2 0 22.5 6t20.5 37v242v2q0 14 -10 29q-4 4 -10.5 5t-10.5 3q-6 2 -10 2h-197 l-7 -1q-7 -1 -15 -4t-14.5 -12.5t-6.5 -23.5v-2v-248z" />
<glyph unicode=":" horiz-adv-x="434" d="M0 33v248q0 20 11.5 26t21.5 6h246q2 0 10 -1t16 -9t8 -24v-7v-241q0 -18 -11 -24.5t-19 -6.5h-242h-6q-2 0 -10.5 1t-16.5 9t-8 23zM0 449v247q0 20 11.5 26.5t21.5 6.5h246q2 0 10 -1t16 -9t8 -25v-6v-242q0 -18 -11 -24t-19 -6h-242h-6q-2 0 -10.5 1t-16.5 9t-8 23z " />
<glyph unicode=";" horiz-adv-x="428" d="M0 33v248q0 20 11.5 26t21.5 6h246q2 0 10 -1t16 -9t8 -24v-7v-241q0 -102 -21.5 -161.5t-50 -90.5t-61.5 -40t-53 -9h-35h-24h-2h-5q-2 0 -6 4t-4 10v102q0 8 4 10.5t8 2.5q53 0 67.5 30.5t16.5 69.5v6q0 20 -12 27.5t-26 7.5h-3h-65h-6q-2 0 -10.5 1t-16.5 9t-8 23z M0 451v247q0 18 11.5 24.5t21.5 6.5h246q2 0 10 -1t16 -9t8 -23v-8v-239q0 -20 -11 -26.5t-19 -6.5h-242h-6q-2 0 -10.5 1t-16.5 9t-8 25z" />
<glyph unicode="?" horiz-adv-x="1032" d="M0 930v266q0 137 80 217q33 33 71.5 51.5t72.5 26.5t57.5 10t25.5 2h297h6q4 0 7.5 -1t7.5 -1q16 -2 43.5 -7t58.5 -17.5t62.5 -33t58.5 -52.5q27 -33 43 -80t16 -113l-2 -477q0 -133 -74 -209q-27 -29 -57.5 -47.5t-59 -28.5t-54 -15t-39.5 -5h-283h-6q-2 0 -10.5 1 t-14.5 9q-10 6 -10 23v247q0 18 11 25.5t22 7.5h231q14 4 21 10q10 8 10 29l2 379v2q0 14 -6 22.5t-15 12.5q-8 6 -20 6h-199q-4 0 -10 -2q-10 -4 -20 -10q-10 -10 -11 -29v-217q0 -16 -8 -25q-4 -4 -8 -5t-8 -3t-8 -2h-240h-8q-10 0 -21.5 7t-11.5 26zM297 33v248 q0 18 11 25t22 7h248q4 0 8 -2t8 -3t8 -5q8 -8 8 -24v-248q0 -18 -11 -24.5t-19 -6.5h-242h-6q-2 0 -10.5 1t-14.5 9q-10 6 -10 23z" />
<glyph unicode="A" d="M0 592v16l10 2t22.5 12.5t23 31t10.5 59.5v483q0 74 22.5 126t56 86t72.5 52.5t73 26.5t56 10l23 2h297q2 0 25.5 -1t57 -10t71.5 -27.5t73 -51.5q6 -6 18 -23q61 -74 62 -192v-483q0 -59 26 -84q14 -14 25 -17q4 -2 10 -2h4v-14v-2h-4q-4 0 -14 -4t-20.5 -15.5 t-18.5 -32t-8 -53.5v-458q0 -18 -11.5 -24.5t-21.5 -6.5h-240h-6q-2 0 -10 1t-16 9t-9 23v397q0 6 -4 10t-12 4h-248q-4 0 -8 -2q-8 -4 -8 -14v-397q0 -18 -11.5 -24.5t-21.5 -6.5h-240h-8q-4 0 -8 2t-8 3t-8 5q-8 8 -8 23v458q0 33 -11 58q-4 8 -12 20q-2 2 -2 3t-2 3 q-14 10 -27 15q-8 2 -12 4zM379 772q0 -8 4 -10q2 -6 12 -6h246q2 0 10 3t8 15v371q0 18 -10 29q-4 4 -10 6t-10 4q-6 2 -11 2h-196l-7 -1q-7 -1 -15.5 -5t-14.5 -12.5t-6 -24.5v-371zM1022 614q4 -2 8 -2q2 0 4 -2l4 -16v14h-4q-6 0 -10 2q0 2 -2 4z" />
<glyph unicode="B" horiz-adv-x="1114" d="M0 594v16l10 2t22.5 12.5t21.5 31t9 59.5v755q0 18 11.5 24.5t21.5 8.5h570q2 0 25.5 -2t57 -11t71.5 -28.5t73 -52.5q4 -4 9 -10t9 -10q61 -78 62 -193v-483q0 -53 -18.5 -77t-34.5 -34q12 -8 20 -14q29 -29 33 -92v-4v-7v-119.5t-2 -60.5h2h-2l2 -2q0 -96 -35 -154.5 t-82 -91t-95 -44t-73 -13.5h-20h-564h-8q-18 0 -24 10q-8 8 -8.5 15.5t-0.5 9.5v457q0 37 -8 59q-4 4 -6 9t-6 9l-6 6q-12 12 -25 17q-8 2 -12 2zM379 330q-1 -3 -1 -5q0 -5 3 -8q4 -4 12 -4h223q16 0 28.5 10.5t12.5 32.5q1 20 1 33q0 21 -2 29q-3 12 -7 18q-10 10 -24 10 h-230q-2 -2 -9 -4t-7 -14v-98zM379 774q-1 -2 -1 -4q0 -4 3 -6q4 -4 12 -4h223q2 0 21.5 5t19.5 36v348q0 18 -8 27q-4 4 -10 6t-10 4q-6 2 -11 2h-223q-2 0 -9 -2t-7 -15v-397z" />
<glyph unicode="C" horiz-adv-x="1105" d="M0 592v16l9 2t20.5 9.5t20.5 25t13 47.5v56v448q0 96 35 154.5t82 90.5t94.5 44t71.5 14q4 0 8 1t8 1h7h297q2 0 24.5 -2t56 -10t71.5 -26.5t73 -51.5q14 -14 20 -22q61 -78 62 -195v-123q0 -20 -12.5 -26.5t-20.5 -6.5h-242h-2h-4q-14 0 -24.5 9.5t-10.5 25.5v74 q0 20 -10 29q-12 8 -18 10t-11 2h-198q-2 0 -22.5 -6t-20.5 -37l2 -793q0 -18 10 -28q4 -4 10.5 -6.5t10.5 -4.5q6 -2 10 -2h198q2 0 21.5 6.5t19.5 36.5v74q0 18 11.5 25.5t21.5 7.5h248q4 0 8 -2t8.5 -3t8.5 -5q8 -8 8 -25v-6l2 -117q0 -76 -22.5 -127t-56.5 -86 t-73 -53.5t-72.5 -26.5t-56.5 -10l-22 -2h-299h-4q-10 0 -17 2q-27 2 -80 15.5t-104 54.5q-8 6 -14.5 12t-14.5 14q-74 76 -73 209v191q0 29 -11 53q-4 4 -6 10t-6 10l-4 4q-18 14 -27 17q-8 2 -12 2z" />
<glyph unicode="D" horiz-adv-x="1118" d="M0 594v16l10 2t22.5 12.5t23 31t10.5 59.5v755q0 16 11 23.5t19 7.5h570q2 0 25.5 -2t57 -10t72.5 -27.5t72 -52.5q14 -14 20 -23q59 -76 60 -192v-891q0 -76 -21.5 -127t-55.5 -86t-73 -53.5t-72.5 -26.5t-56.5 -10l-24 -2h-564h-10q-14 0 -24 10q-6 8 -6 16.5v10.5v457 q0 33 -11 57q-4 8 -12 20q-2 2 -2 3t-2 3q-14 10 -27 15q-8 2 -12 4zM379 328q0 -6 4 -11q2 -4 10 -4h223l8 1q7 1 15 4.5t14 11.5t6 24v793q0 18 -10 29q-4 4 -10 6t-10 4q-6 2 -11 2h-221q-4 0 -11 -3t-7 -16v-841z" />
<glyph unicode="E" horiz-adv-x="1089" d="M0 594v16l10 2t22.5 12.5t23 31t10.5 59.5v755q0 18 11 24.5t19 8.5h842q2 0 10 -2t17 -10q8 -8 8 -23v-6v-241q0 -18 -11.5 -25.5t-21.5 -7.5h-545q-4 0 -8 -2q-8 -4 -8 -15v-397q0 -8 4 -10q2 -4 12 -4h246q2 0 10 -1t15 -9q10 -6 10 -25v-6v-242q0 -18 -11.5 -24.5 t-21.5 -6.5h-248l-8 -4q-8 -4 -8 -14v-98q0 -8 4 -13q8 -4 12 -4h543q2 0 10 -1t17 -9q8 -8 8 -22v-9v-239q0 -20 -11.5 -26.5t-19.5 -6.5h-2h-834h-8q-4 0 -8 2t-8 3t-8 5q-8 8 -8 25v457q0 33 -11 59q-4 4 -6 9t-6 9q-2 2 -2 3t-2 3q-18 14 -27 17q-8 2 -12 2z" />
<glyph unicode="F" horiz-adv-x="1054" d="M-2 594v16l10 2t22.5 12.5t22.5 31t10 59.5v755q0 18 11.5 24.5t19.5 8.5h844q4 0 8 -2t17 -10q8 -8 8 -23v-6v-241q0 -18 -11.5 -25.5t-19.5 -7.5h-545q-2 0 -10 -2t-8 -15v-397q0 -6 4 -10t12 -4h248q4 0 8 -2t8.5 -3t8.5 -5q8 -8 8 -25v-6v-242q0 -18 -11.5 -24.5 t-19.5 -6.5h-248q-2 0 -10 -3t-8 -15v-395q0 -20 -11.5 -26.5t-19.5 -6.5h-2h-240h-6q-2 0 -10 1t-16 9t-9 25v457q0 33 -10 59q-4 12 -12 18q0 2 -4 6q-18 14 -27 17q-8 2 -12 2z" />
<glyph unicode="G" horiz-adv-x="1073" d="M0 582v16l9 2t20.5 10t21.5 26.5t12 51.5v45v494q6 84 41 136t80 81t89 39t67 12h2q4 0 7 1t7 1h4h293h4q2 0 6.5 -1t8.5 -1q25 -2 72 -13.5t94 -41.5q10 -10 21 -19.5t22 -19.5q72 -74 71 -205v-121q0 -18 -11 -24.5t-19 -6.5h-248q-6 0 -14.5 5.5t-12.5 15.5 q-2 2 -2 14.5v69.5v8q-4 16 -10 21q-6 6 -19 10q-6 2 -10 2h-194q-2 0 -21.5 -6t-19.5 -37l2 -801q0 -18 10 -27q4 -4 8 -7t19 -5h196q2 0 21.5 5t19.5 36v41v47h-106h-13q-29 0 -28 33v244q0 14 9 23t23 7l390 2q6 0 17 -5t15 -21v-8v-6v-674q0 -18 -11 -24.5t-21 -6.5 h-555h-7q-8 0 -14 2q-16 0 -40.5 5t-53.5 15.5t-58.5 28t-56.5 45.5q-8 8 -10 13q-61 74 -61 192l-3 180q0 29 -6 47q-2 10 -6 16.5t-8 12.5q-2 2 -3 4t-3 4q-6 6 -13.5 9.5t-11.5 5.5q-8 2 -12 2z" />
<glyph unicode="H" horiz-adv-x="1134" d="M2 594v16l10 2q11 2 23 12.5t22.5 31t10.5 59.5v755q0 18 11 24.5t19 8.5h248q2 0 10.5 -2t14.5 -10q10 -6 10 -23v-6v-688q0 -8 4 -10q2 -4 12 -4h246q4 0 11.5 2t7.5 14v694q0 18 11 24.5t19 8.5h248q2 0 10 -2t17 -10q8 -8 8 -23v-6v-749q0 -57 26 -84q10 -10 25 -15 q8 -4 10 -4h4v-16h-4q-4 0 -14 -4t-20.5 -14.5t-18.5 -31t-8 -55.5v-456q0 -20 -11.5 -26.5t-21.5 -6.5h-240h-6q-2 0 -10 1t-16 9t-8 25v395q0 6 -5 10q-6 6 -12 6h-246q-2 0 -10 -3t-8 -15v-395q0 -20 -11.5 -26.5t-21.5 -6.5h-239h-9q-4 0 -8 2t-8 3t-8 5q-8 8 -8 25v457 q0 33 -11 59q-4 4 -6 9t-6 9q-2 2 -2 3t-2 3q-18 14 -27 17q-8 2 -12 2zM1036 594h4h-4z" />
<glyph unicode="I" horiz-adv-x="534" d="M0 594v16l10 2t21.5 11.5t21.5 29t13 56.5v761q0 18 11 24.5t19 8.5h248q2 0 10 -2t15 -10q4 -4 7 -8t3 -15v-6v-749q0 -57 27 -84q14 -16 36 -19v-16h-2q-4 0 -14 -4t-20.5 -14.5t-18.5 -31t-8 -55.5v-456q0 -20 -11.5 -26.5t-21.5 -6.5h-248q-2 0 -9 1t-15 9t-8 25v467 q-2 14 -4.5 26.5t-6.5 22.5q-4 4 -6 9t-6 9l-4 6q-18 14 -27 17q-8 2 -12 2z" />
<glyph unicode="J" horiz-adv-x="1075" d="M0 305v125q0 18 12.5 24.5t20.5 6.5h248q2 0 10 -1t14 -9q10 -10 10 -23v-8v-68q0 -18 11 -26q4 -6 18 -11q6 -2 10 -2h2h197l7 1t15.5 4.5t14.5 11.5t6 24v140q0 31 -10 55q-4 8 -13 20q-2 2 -2 3t-2 3q-18 14 -26 17q-8 2 -13 2v16l10 2q11 2 23 11.5t22.5 31 t10.5 58.5v757q0 18 11 24.5t20 6.5h247q2 0 10.5 -1t14.5 -9q4 -4 7 -8t3 -15v-8v-755q0 -49 27 -76q8 -8 16.5 -13.5t20.5 -5.5v-16h-2q-4 0 -14.5 -4t-20.5 -14.5t-18.5 -30t-8.5 -51.5v-191q0 -113 -47 -174t-104.5 -90t-104.5 -34t-49 -5h-297q-2 0 -21.5 1t-49 7 t-65.5 20.5t-69 41.5q-4 4 -10 9t-10 11q-82 82 -82 215z" />
<glyph unicode="K" horiz-adv-x="1095" d="M0 594v16l10 2t22.5 12.5t23 32t10.5 58.5v755q0 18 11 25.5t19 7.5h248q2 0 10 -2t17 -8q8 -8 8 -25v-6v-661v-6q2 4 2 5t2 5l266 670q8 16 25 24q8 4 16 4h256q2 0 10.5 -2t14.5 -10q5 -5 5 -12q0 -6 -3 -13l-2 -4l-275 -690q-6 -16 -7 -31.5t1 -25.5q2 -12 6 -25 l277 -655q2 -6 2 -11.5t-2 -9.5q-6 -10 -17.5 -12t-15.5 -2h-244h-2q-4 0 -14 4t-21 27l-167 397q-6 10 -17 14q-6 2 -10 4h-70l-8 -4q-8 -4 -8 -14v-395q0 -18 -11.5 -25.5t-21.5 -7.5h-248q-4 0 -8 2t-8 3t-8 5q-8 8 -8 25v457q0 33 -11 59q-4 8 -12 20l-4 4 q-18 14 -27 17q-8 2 -12 2z" />
<glyph unicode="L" horiz-adv-x="1081" d="M-2 594v16l10 2t22.5 12.5t22.5 31t10 59.5v755q0 18 11.5 24.5t19.5 8.5h248q2 0 10 -2t15 -10q4 -4 7 -8t3 -15v-6v-762q3 -48 26 -71q14 -14 39 -19v-16h-4q-4 0 -14 -4t-19.5 -13.5t-17.5 -27t-10 -47.5v-148q0 -18 10 -28q4 -4 10 -6.5t11 -4.5q6 -2 10 -2h518 q2 0 10 -1t17 -9q8 -8 8 -22v-9v-239q0 -20 -11.5 -26.5t-21.5 -6.5h-834h-8q-4 0 -8 2t-8 3t-8 5q-8 8 -9 25v457q0 33 -10 59q-4 4 -6 9t-6 9l-4 6q-18 14 -27 17q-8 2 -12 2z" />
<glyph unicode="M" horiz-adv-x="1462" d="M0 594v16l10 2t22.5 12.5t21.5 31t9 59.5l-2 755q0 18 11.5 24.5t19.5 8.5h248q2 0 10 -2t17 -10q2 -2 5 -7t3 -14l4 -8l287 -641l290 652q0 16 11.5 22t19.5 8h248q2 0 10 -2t15 -10q4 -4 7 -8t3 -15v-6v-749q0 -57 26 -84q10 -10 23 -15q8 -4 10 -4h4v-18q-6 0 -16 -3 t-20.5 -14.5t-18.5 -32t-8 -53.5v-456q0 -20 -12.5 -26.5t-20.5 -6.5h-240h-8q-2 0 -9 1t-15 9q-4 4 -7.5 9.5t-3.5 15.5v641l-153 -346q0 -2 -9.5 -17.5t-31.5 -15.5h-182h-7q-16 0 -24 14.5t-12 20.5l-156 346l2 -645q0 -20 -11.5 -26.5t-19.5 -6.5h-241h-7q-2 0 -10 1 t-16 9t-8 25l-2 457q0 33 -11 59q-4 12 -12 18q0 2 -4 6q-18 14 -27 17q-8 2 -12 2z" />
<glyph unicode="N" horiz-adv-x="1153" d="M-2 594v16l9 2t20.5 9.5t20.5 25t13 47.5v776q0 18 11.5 24.5t21.5 8.5h248q16 0 24.5 -14t8.5 -19l4 -8l276 -669v677q0 18 12.5 24.5t20.5 8.5h248q2 0 9 -2t16 -10q4 -4 7 -8t3 -15v-6v-749q0 -57 26 -84q10 -10 25.5 -14.5t13.5 -4.5v-16h-4q-4 0 -14 -4t-20.5 -15.5 t-18.5 -32t-8 -53.5v-456q0 -20 -12.5 -26.5t-20.5 -6.5h-244h-4q-16 0 -24.5 13.5t-8.5 17.5l-282 680v-678q0 -20 -11.5 -26.5t-19.5 -6.5h-242h-6q-2 0 -9 1t-15 9q-4 4 -7.5 9.5t-3.5 15.5v477q0 10 -2 19.5t-6 19.5q-4 4 -6 9t-6 9q-2 2 -2 3t-2 3q-18 14 -27 17 q-8 2 -12 2z" />
<glyph unicode="O" horiz-adv-x="1142" d="M0 594v16l10 2t22.5 12.5t23 31t10.5 59.5v483q0 76 22.5 127t56 85t72.5 52.5t73 27.5t56 11l23 2h297q2 0 25.5 -2t57 -10t71.5 -27.5t73 -52.5q4 -4 9 -10t9 -10q61 -78 62 -195v-483q0 -57 26 -84q8 -8 18.5 -12.5t20.5 -6.5v-16q-39 0 -52 -35t-13 -70v-184 q0 -76 -22.5 -127t-56.5 -86t-73 -53.5t-72.5 -26.5t-56.5 -10l-24 -2h-297q-2 0 -21.5 1t-49.5 8t-65.5 21.5t-68.5 41.5q-4 4 -10 9t-11 9q-80 80 -79 217v185q0 33 -11 59q-4 4 -6 9t-6 9q-2 2 -2 3t-2 3q-18 14 -27 17q-8 2 -12 2zM379 354q0 -18 10 -28t19.5 -11.5 t11.5 -1.5h196q2 0 22.5 6.5t20.5 36.5v791v2q0 16 -10 27q-4 4 -10 6t-10 4q-6 2 -11 2h-196l-7 -1q-7 -1 -15.5 -4t-14.5 -12.5t-6 -23.5v-793z" />
<glyph unicode="P" horiz-adv-x="1105" d="M0 594v16l10 2t22.5 12.5t23 31t10.5 59.5v755q0 18 11 24.5t19 8.5h570q2 0 25.5 -2t57 -11t72.5 -28.5t72 -52.5q6 -4 11 -10t9 -10q59 -78 60 -193v-446q0 -76 -21.5 -127.5t-55.5 -85t-73 -52t-72.5 -26.5t-56.5 -11l-24 -2h-275q0 -2 -8 -4t-8 -14v-397 q0 -18 -11.5 -24.5t-21.5 -6.5h-240h-8q-4 0 -8 2t-8 3t-8 5q-8 8 -8 23v459q0 33 -11 59q-4 4 -6 9t-6 9q-2 2 -2 3t-2 3q-18 14 -27 17q-8 2 -12 2zM379 774q0 -6 4 -10q2 -4 10 -4h223l8 1q7 1 15 4t14 11t6 25v346v2q0 16 -10 27q-4 4 -10 6t-10 4q-6 2 -11 2h-221 q-4 0 -11 -2t-7 -15v-397z" />
<glyph unicode="Q" horiz-adv-x="1202" d="M0 594v16l10 2t22.5 12.5t23 31t10.5 59.5v483q0 76 22.5 127t56 85t72.5 52.5t73 27.5t56 11l23 2h297q2 0 25.5 -2t57 -10t71.5 -27.5t73 -52.5q4 -4 9 -10t11 -10q59 -78 60 -195v-483q0 -57 26 -84q10 -10 18.5 -12.5t20.5 -6.5v-16q-37 0 -51 -35t-14 -70v-135 q0 -18 10 -28q4 -4 10 -6.5t11 -4.5q6 -2 10 -2h84q2 0 9 -1t15 -9q10 -10 11 -22v-9v-239q0 -20 -12.5 -26.5t-20.5 -6.5h-729q-2 0 -21.5 1t-49.5 8t-65.5 21.5t-68.5 41.5q-4 4 -10 9t-11 9q-80 80 -79 217v185q0 33 -11 59q-4 4 -6 9t-6 9q-2 2 -2 3t-2 3q-18 14 -27 17 q-8 2 -12 2zM379 354q0 -18 10 -28t19.5 -11.5t11.5 -1.5h196q2 0 22.5 6.5t20.5 36.5v791v2q0 16 -10 27q-4 4 -10 6t-10 4q-6 2 -11 2h-196l-7 -1q-7 -1 -15.5 -4t-14.5 -12.5t-6 -23.5v-793z" />
<glyph unicode="R" d="M0 594v16l10 2t22.5 12.5t23 31t10.5 59.5v755q0 18 11 24.5t19 8.5h570q2 0 25.5 -2t57 -11t72.5 -28.5t72 -52.5q6 -4 11 -10t9 -10q59 -78 60 -193v-483q0 -53 -17.5 -77t-35.5 -34q4 -4 10 -7t10 -7q29 -29 33 -92v-463q0 -18 -11.5 -25.5t-21.5 -7.5h-240h-4 q-12 0 -26 10q-4 4 -5 7t-3 8q-2 4 -3 8v375q0 18 -10 28q-4 6 -12 7t-12 3h-230l-8 -4q-8 -4 -8 -14v-395q0 -10 -6 -21.5t-29 -11.5h-238h-10q-14 0 -24 10q-6 8 -6 15.5v9.5v457q0 33 -11 59q-4 4 -6 9t-6 9q-2 2 -2 3t-2 3q-18 14 -27 17q-8 2 -12 2zM379 774 q0 -6 4 -10q2 -4 10 -4h223l8 1q7 1 15 4t14 11t6 25v346v2q0 16 -10 27q-4 4 -10 6t-10 4q-6 2 -11 2h-221q-4 0 -11 -2t-7 -15v-397z" />
<glyph unicode="S" horiz-adv-x="1038" d="M-2 752l2 446q0 76 21.5 127t55.5 86t72.5 53.5t72.5 26.5t58 10l23 2h569q2 0 10.5 -1t14.5 -9q4 -4 7 -9t3 -16v-6v-241q0 -18 -11 -24.5t-22 -6.5h-419q-31 0 -56.5 -2t-44 -15.5t-30 -43t-11.5 -82.5v-150q0 -74 31 -104q16 -12 25 -17q27 -12 60.5 -14t68.5 -2h149 q2 0 19.5 -1t43 -9.5t56.5 -23.5t59 -42q4 -4 10.5 -10t10.5 -12q61 -78 61 -209v-148q0 -76 -21.5 -127t-55 -86t-72.5 -53.5t-73 -26.5t-57 -10l-24 -2h-563h-8q-2 0 -9.5 1t-15.5 9t-8 25v248q0 18 11.5 24t19.5 6h493q2 0 17.5 3t31.5 16q8 8 14.5 19t6.5 30q0 10 -2 20 q-2 12 -14 25q-14 14 -33 18q-8 2 -19 2h-219q-2 0 -18.5 1.5t-41 5.5t-55 14t-61.5 29q-8 6 -16.5 11t-14.5 11q-102 80 -102 234z" />
<glyph unicode="T" horiz-adv-x="1036" d="M0 1223v247q0 18 11.5 25.5t21.5 7.5h841q4 0 9 -2q4 -2 8 -3t8 -5q8 -8 8 -25v-6v-241q0 -18 -11 -25.5t-19 -7.5h-248q-4 0 -11.5 -2t-7.5 -15v-458q0 -53 27 -84q18 -18 39 -19v-16q-37 0 -51.5 -35t-14.5 -70v-456q0 -20 -11 -26.5t-19 -6.5h-248q-2 0 -10.5 1 t-14.5 9q-10 6 -10 25v457q0 33 -10 59q-4 12 -11 18l-6 6q-18 14 -26 17q-8 2 -13 2v16q2 0 12.5 2t23 12.5t21.5 31t9 59.5v432v27q0 6 -4 10q-2 4 -6 4h-6h-240h-6q-2 0 -10.5 2t-16.5 8q-8 8 -8 25z" />
<glyph unicode="U" horiz-adv-x="1153" d="M0 594v16l10 2t22.5 12.5t23 31t10.5 59.5v755q0 18 11 24.5t19 6.5h248q2 0 10 -1t17 -9q8 -8 8 -23v-8v-1108q0 -16 10 -26t19.5 -11.5t11.5 -1.5h196l8 1q7 1 15 4.5t14 11.5t6 24v1116q0 18 11.5 24.5t19.5 6.5h248q2 0 10 -1t17 -9q8 -8 8 -23v-8v-747q0 -59 26 -84 q6 -6 12.5 -9.5t12.5 -7.5q4 -2 10 -2h4v-12v-4h-4q-4 0 -14 -4t-20.5 -15.5t-18.5 -32t-8 -53.5v-186q0 -113 -47 -174t-104.5 -90t-104.5 -34t-49 -5h-297q-2 0 -21.5 1t-49.5 8t-65.5 21.5t-68.5 41.5q-14 8 -21 18q-80 80 -79 215v187q0 33 -11 57q-4 8 -12 20 q-2 2 -2 3t-2 3q-14 10 -27 15q-8 2 -12 4z" />
<glyph unicode="V" horiz-adv-x="1028" d="M-2 1468v2q0 18 11 25.5t20 7.5h247q2 0 10.5 -2t16.5 -8q4 -4 6 -9t2 -16l2 -6l129 -743l150 754q4 23 15 26.5t16 3.5h258q2 0 10 -2t12 -10q5 -5 5 -12q0 -6 -3 -13v-4q-4 -16 -18.5 -86.5t-36 -176t-48 -234.5t-52.5 -260q-1 -6 -1 -11q0 -27 16 -51q19 -29 48 -33 v-16h-2q-6 0 -19.5 -2t-28.5 -10.5t-29.5 -23.5t-22.5 -42q-29 -133 -52 -240q-10 -45 -18 -89t-16.5 -78.5t-12.5 -56.5l-4 -21q-4 -10 -9 -15.5t-9 -9.5q-6 -4 -10 -6h-2h-244h-4q-6 0 -17.5 7t-17.5 26q-2 6 -27.5 126t-72.5 355q-2 10 -11 27q-14 22 -32 34 q-20 14 -38 16.5t-22 2.5h-2v16q2 0 14.5 2t26.5 11.5t22.5 29t2.5 52.5z" />
<glyph unicode="W" horiz-adv-x="1619" d="M-18 1468v2q0 16 11 23.5t19 7.5h248q2 0 10.5 -1t16.5 -9t8 -23l2 -8l129 -743q4 12 13.5 58t22.5 111.5t28.5 142.5t30 152.5t27.5 141.5t21.5 109t10.5 56t-5 -18q4 23 15.5 27t15.5 4h256q2 0 9.5 -1t13.5 -7t6 -16q0 -4 1 -5.5t1 -3.5v-8l131 -743q2 12 10 58 t21.5 111.5t29 143.5t30.5 154t28.5 143.5t23 110.5t11.5 54t-4 -22q4 23 15 27t15 4h256q2 0 10.5 -1t14.5 -9q3 -6 3 -12.5t-3 -14.5v-4q-4 -16 -18.5 -86.5t-36 -176t-48 -234.5t-53.5 -261q-4 -33 13.5 -60.5t50.5 -31.5v-16h-2q-6 0 -19.5 -2t-29 -10.5t-30 -23.5 t-22.5 -42l-6 -29q-31 -152 -49 -240.5t-28.5 -137t-14.5 -63.5t-4 -17q-4 -10 -9 -15.5t-10 -9.5q-6 -4 -10 -4h-246h-2q-8 0 -19 5t-15 26q-4 20 -14.5 67t-24 108.5t-27.5 131.5t-28.5 138.5t-28 130t-21.5 104.5l-141 -682q-6 -20 -17.5 -24.5t-13.5 -4.5h-244h-4 q-6 0 -18 6t-16 25q0 2 -4.5 18.5t-14.5 67.5t-29.5 145t-52.5 252q-4 6 -5 12t-5 13q-14 20 -33 36q-20 12 -37.5 15.5t-21.5 3.5h-2v16q2 0 11 2t21.5 11.5t21.5 28t11 53.5q-29 141 -57.5 276t-50.5 246q-27 127 -49 241z" />
<glyph unicode="X" horiz-adv-x="1013" d="M-8 24q-1 2 -1 3q0 4 3 10l297 715l-297 714q-2 12 2 21q6 10 20.5 13t16.5 3h231q8 0 21.5 -7t21.5 -23l4 -13l138 -327l141 340q8 23 22.5 26.5t16.5 3.5h233q4 0 17.5 -3t19.5 -13q8 -8 2 -21l-2 -4l-293 -712l295 -715q3 -8 3 -12t-3 -11q-4 -10 -13 -11t-14 -1h-247 q-8 0 -19.5 6t-17.5 25l-141 340l-142 -342q-10 -23 -24.5 -26t-16.5 -3h-229h-4q-4 0 -16.5 2t-20.5 12q-2 4 -4 10z" />
<glyph unicode="Y" horiz-adv-x="1011" d="M-16 1468q-1 3 -1 7q0 6 3 12q6 10 20 13t17 3h231q10 -2 22.5 -8t20.5 -22l2 -13l139 -610l140 623q10 23 24 26.5t16 3.5h234q4 0 17.5 -3t19.5 -13q5 -5 5 -11q0 -4 -3 -10v-4l-297 -1009v-420q2 -10 -5 -21.5t-28 -11.5h-239h-5q-4 0 -12 1t-14 9q-4 4 -7 9.5 t-3 15.5v39v381z" />
<glyph unicode="Z" horiz-adv-x="1042" d="M0 35v254q0 29 8 47t8 20l512 815q4 6 4 13q-2 4 -6 4h-6h-479h-6q-2 0 -10.5 2t-16.5 10t-8 23v247q0 18 11.5 25.5t21.5 7.5h841q4 0 10.5 -2t14.5 -8q8 -8 8 -25v-6v-282q0 -35 -7 -50.5t-11 -19.5l-510 -780q-6 -8 -2 -13q4 -4 12 -4h485q2 0 9.5 -1t15.5 -9t8 -22 v-9v-239q0 -20 -11 -26.5t-19 -6.5h-836h-8q-2 0 -9.5 1t-15.5 9t-8 25z" />
<glyph unicode="a" d="M0 592v16l10 2t22.5 12.5t23 31t10.5 59.5v483q0 74 22.5 126t56 86t72.5 52.5t73 26.5t56 10l23 2h297q2 0 25.5 -1t57 -10t71.5 -27.5t73 -51.5q6 -6 18 -23q61 -74 62 -192v-483q0 -59 26 -84q14 -14 25 -17q4 -2 10 -2h4v-14v-2h-4q-4 0 -14 -4t-20.5 -15.5 t-18.5 -32t-8 -53.5v-458q0 -18 -11.5 -24.5t-21.5 -6.5h-240h-6q-2 0 -10 1t-16 9t-9 23v397q0 6 -4 10t-12 4h-248q-4 0 -8 -2q-8 -4 -8 -14v-397q0 -18 -11.5 -24.5t-21.5 -6.5h-240h-8q-4 0 -8 2t-8 3t-8 5q-8 8 -8 23v458q0 33 -11 58q-4 8 -12 20q-2 2 -2 3t-2 3 q-14 10 -27 15q-8 2 -12 4zM379 772q0 -8 4 -10q2 -6 12 -6h246q2 0 10 3t8 15v371q0 18 -10 29q-4 4 -10 6t-10 4q-6 2 -11 2h-196l-7 -1q-7 -1 -15.5 -5t-14.5 -12.5t-6 -24.5v-371zM1022 614q4 -2 8 -2q2 0 4 -2l4 -16v14h-4q-6 0 -10 2q0 2 -2 4z" />
<glyph unicode="b" horiz-adv-x="1114" d="M0 594v16l10 2t22.5 12.5t21.5 31t9 59.5v755q0 18 11.5 24.5t21.5 8.5h570q2 0 25.5 -2t57 -11t71.5 -28.5t73 -52.5q4 -4 9 -10t9 -10q61 -78 62 -193v-483q0 -53 -18.5 -77t-34.5 -34q12 -8 20 -14q29 -29 33 -92v-4v-7v-119.5t-2 -60.5h2h-2l2 -2q0 -96 -35 -154.5 t-82 -91t-95 -44t-73 -13.5h-20h-564h-8q-18 0 -24 10q-8 8 -8.5 15.5t-0.5 9.5v457q0 37 -8 59q-4 4 -6 9t-6 9l-6 6q-12 12 -25 17q-8 2 -12 2zM379 330q-1 -3 -1 -5q0 -5 3 -8q4 -4 12 -4h223q16 0 28.5 10.5t12.5 32.5q1 20 1 33q0 21 -2 29q-3 12 -7 18q-10 10 -24 10 h-230q-2 -2 -9 -4t-7 -14v-98zM379 774q-1 -2 -1 -4q0 -4 3 -6q4 -4 12 -4h223q2 0 21.5 5t19.5 36v348q0 18 -8 27q-4 4 -10 6t-10 4q-6 2 -11 2h-223q-2 0 -9 -2t-7 -15v-397z" />
<glyph unicode="c" horiz-adv-x="1105" d="M0 592v16l9 2t20.5 9.5t20.5 25t13 47.5v56v448q0 96 35 154.5t82 90.5t94.5 44t71.5 14q4 0 8 1t8 1h7h297q2 0 24.5 -2t56 -10t71.5 -26.5t73 -51.5q14 -14 20 -22q61 -78 62 -195v-123q0 -20 -12.5 -26.5t-20.5 -6.5h-242h-2h-4q-14 0 -24.5 9.5t-10.5 25.5v74 q0 20 -10 29q-12 8 -18 10t-11 2h-198q-2 0 -22.5 -6t-20.5 -37l2 -793q0 -18 10 -28q4 -4 10.5 -6.5t10.5 -4.5q6 -2 10 -2h198q2 0 21.5 6.5t19.5 36.5v74q0 18 11.5 25.5t21.5 7.5h248q4 0 8 -2t8.5 -3t8.5 -5q8 -8 8 -25v-6l2 -117q0 -76 -22.5 -127t-56.5 -86 t-73 -53.5t-72.5 -26.5t-56.5 -10l-22 -2h-299h-4q-10 0 -17 2q-27 2 -80 15.5t-104 54.5q-8 6 -14.5 12t-14.5 14q-74 76 -73 209v191q0 29 -11 53q-4 4 -6 10t-6 10l-4 4q-18 14 -27 17q-8 2 -12 2z" />
<glyph unicode="d" horiz-adv-x="1118" d="M0 594v16l10 2t22.5 12.5t23 31t10.5 59.5v755q0 16 11 23.5t19 7.5h570q2 0 25.5 -2t57 -10t72.5 -27.5t72 -52.5q14 -14 20 -23q59 -76 60 -192v-891q0 -76 -21.5 -127t-55.5 -86t-73 -53.5t-72.5 -26.5t-56.5 -10l-24 -2h-564h-10q-14 0 -24 10q-6 8 -6 16.5v10.5v457 q0 33 -11 57q-4 8 -12 20q-2 2 -2 3t-2 3q-14 10 -27 15q-8 2 -12 4zM379 328q0 -6 4 -11q2 -4 10 -4h223l8 1q7 1 15 4.5t14 11.5t6 24v793q0 18 -10 29q-4 4 -10 6t-10 4q-6 2 -11 2h-221q-4 0 -11 -3t-7 -16v-841z" />
<glyph unicode="e" horiz-adv-x="1089" d="M0 594v16l10 2t22.5 12.5t23 31t10.5 59.5v755q0 18 11 24.5t19 8.5h842q2 0 10 -2t17 -10q8 -8 8 -23v-6v-241q0 -18 -11.5 -25.5t-21.5 -7.5h-545q-4 0 -8 -2q-8 -4 -8 -15v-397q0 -8 4 -10q2 -4 12 -4h246q2 0 10 -1t15 -9q10 -6 10 -25v-6v-242q0 -18 -11.5 -24.5 t-21.5 -6.5h-248l-8 -4q-8 -4 -8 -14v-98q0 -8 4 -13q8 -4 12 -4h543q2 0 10 -1t17 -9q8 -8 8 -22v-9v-239q0 -20 -11.5 -26.5t-19.5 -6.5h-2h-834h-8q-4 0 -8 2t-8 3t-8 5q-8 8 -8 25v457q0 33 -11 59q-4 4 -6 9t-6 9q-2 2 -2 3t-2 3q-18 14 -27 17q-8 2 -12 2z" />
<glyph unicode="f" horiz-adv-x="1054" d="M-2 594v16l10 2t22.5 12.5t22.5 31t10 59.5v755q0 18 11.5 24.5t19.5 8.5h844q4 0 8 -2t17 -10q8 -8 8 -23v-6v-241q0 -18 -11.5 -25.5t-19.5 -7.5h-545q-2 0 -10 -2t-8 -15v-397q0 -6 4 -10t12 -4h248q4 0 8 -2t8.5 -3t8.5 -5q8 -8 8 -25v-6v-242q0 -18 -11.5 -24.5 t-19.5 -6.5h-248q-2 0 -10 -3t-8 -15v-395q0 -20 -11.5 -26.5t-19.5 -6.5h-2h-240h-6q-2 0 -10 1t-16 9t-9 25v457q0 33 -10 59q-4 12 -12 18q0 2 -4 6q-18 14 -27 17q-8 2 -12 2z" />
<glyph unicode="g" horiz-adv-x="1073" d="M0 582v16l9 2t20.5 10t21.5 26.5t12 51.5v45v494q6 84 41 136t80 81t89 39t67 12h2q4 0 7 1t7 1h4h293h4q2 0 6.5 -1t8.5 -1q25 -2 72 -13.5t94 -41.5q10 -10 21 -19.5t22 -19.5q72 -74 71 -205v-121q0 -18 -11 -24.5t-19 -6.5h-248q-6 0 -14.5 5.5t-12.5 15.5 q-2 2 -2 14.5v69.5v8q-4 16 -10 21q-6 6 -19 10q-6 2 -10 2h-194q-2 0 -21.5 -6t-19.5 -37l2 -801q0 -18 10 -27q4 -4 8 -7t19 -5h196q2 0 21.5 5t19.5 36v41v47h-106h-13q-29 0 -28 33v244q0 14 9 23t23 7l390 2q6 0 17 -5t15 -21v-8v-6v-674q0 -18 -11 -24.5t-21 -6.5 h-555h-7q-8 0 -14 2q-16 0 -40.5 5t-53.5 15.5t-58.5 28t-56.5 45.5q-8 8 -10 13q-61 74 -61 192l-3 180q0 29 -6 47q-2 10 -6 16.5t-8 12.5q-2 2 -3 4t-3 4q-6 6 -13.5 9.5t-11.5 5.5q-8 2 -12 2z" />
<glyph unicode="h" horiz-adv-x="1134" d="M2 594v16l10 2q11 2 23 12.5t22.5 31t10.5 59.5v755q0 18 11 24.5t19 8.5h248q2 0 10.5 -2t14.5 -10q10 -6 10 -23v-6v-688q0 -8 4 -10q2 -4 12 -4h246q4 0 11.5 2t7.5 14v694q0 18 11 24.5t19 8.5h248q2 0 10 -2t17 -10q8 -8 8 -23v-6v-749q0 -57 26 -84q10 -10 25 -15 q8 -4 10 -4h4v-16h-4q-4 0 -14 -4t-20.5 -14.5t-18.5 -31t-8 -55.5v-456q0 -20 -11.5 -26.5t-21.5 -6.5h-240h-6q-2 0 -10 1t-16 9t-8 25v395q0 6 -5 10q-6 6 -12 6h-246q-2 0 -10 -3t-8 -15v-395q0 -20 -11.5 -26.5t-21.5 -6.5h-239h-9q-4 0 -8 2t-8 3t-8 5q-8 8 -8 25v457 q0 33 -11 59q-4 4 -6 9t-6 9q-2 2 -2 3t-2 3q-18 14 -27 17q-8 2 -12 2zM1036 594h4h-4z" />
<glyph unicode="i" horiz-adv-x="534" d="M0 594v16l10 2t21.5 11.5t21.5 29t13 56.5v761q0 18 11 24.5t19 8.5h248q2 0 10 -2t15 -10q4 -4 7 -8t3 -15v-6v-749q0 -57 27 -84q14 -16 36 -19v-16h-2q-4 0 -14 -4t-20.5 -14.5t-18.5 -31t-8 -55.5v-456q0 -20 -11.5 -26.5t-21.5 -6.5h-248q-2 0 -9 1t-15 9t-8 25v467 q-2 14 -4.5 26.5t-6.5 22.5q-4 4 -6 9t-6 9l-4 6q-18 14 -27 17q-8 2 -12 2z" />
<glyph unicode="j" horiz-adv-x="1075" d="M0 305v125q0 18 12.5 24.5t20.5 6.5h248q2 0 10 -1t14 -9q10 -10 10 -23v-8v-68q0 -18 11 -26q4 -6 18 -11q6 -2 10 -2h2h197l7 1t15.5 4.5t14.5 11.5t6 24v140q0 31 -10 55q-4 8 -13 20q-2 2 -2 3t-2 3q-18 14 -26 17q-8 2 -13 2v16l10 2q11 2 23 11.5t22.5 31 t10.5 58.5v757q0 18 11 24.5t20 6.5h247q2 0 10.5 -1t14.5 -9q4 -4 7 -8t3 -15v-8v-755q0 -49 27 -76q8 -8 16.5 -13.5t20.5 -5.5v-16h-2q-4 0 -14.5 -4t-20.5 -14.5t-18.5 -30t-8.5 -51.5v-191q0 -113 -47 -174t-104.5 -90t-104.5 -34t-49 -5h-297q-2 0 -21.5 1t-49 7 t-65.5 20.5t-69 41.5q-4 4 -10 9t-10 11q-82 82 -82 215z" />
<glyph unicode="k" horiz-adv-x="1095" d="M0 594v16l10 2t22.5 12.5t23 32t10.5 58.5v755q0 18 11 25.5t19 7.5h248q2 0 10 -2t17 -8q8 -8 8 -25v-6v-661v-6q2 4 2 5t2 5l266 670q8 16 25 24q8 4 16 4h256q2 0 10.5 -2t14.5 -10q5 -5 5 -12q0 -6 -3 -13l-2 -4l-275 -690q-6 -16 -7 -31.5t1 -25.5q2 -12 6 -25 l277 -655q2 -6 2 -11.5t-2 -9.5q-6 -10 -17.5 -12t-15.5 -2h-244h-2q-4 0 -14 4t-21 27l-167 397q-6 10 -17 14q-6 2 -10 4h-70l-8 -4q-8 -4 -8 -14v-395q0 -18 -11.5 -25.5t-21.5 -7.5h-248q-4 0 -8 2t-8 3t-8 5q-8 8 -8 25v457q0 33 -11 59q-4 8 -12 20l-4 4 q-18 14 -27 17q-8 2 -12 2z" />
<glyph unicode="l" horiz-adv-x="1081" d="M-2 594v16l10 2t22.5 12.5t22.5 31t10 59.5v755q0 18 11.5 24.5t19.5 8.5h248q2 0 10 -2t15 -10q4 -4 7 -8t3 -15v-6v-762q3 -48 26 -71q14 -14 39 -19v-16h-4q-4 0 -14 -4t-19.5 -13.5t-17.5 -27t-10 -47.5v-148q0 -18 10 -28q4 -4 10 -6.5t11 -4.5q6 -2 10 -2h518 q2 0 10 -1t17 -9q8 -8 8 -22v-9v-239q0 -20 -11.5 -26.5t-21.5 -6.5h-834h-8q-4 0 -8 2t-8 3t-8 5q-8 8 -9 25v457q0 33 -10 59q-4 4 -6 9t-6 9l-4 6q-18 14 -27 17q-8 2 -12 2z" />
<glyph unicode="m" horiz-adv-x="1462" d="M0 594v16l10 2t22.5 12.5t21.5 31t9 59.5l-2 755q0 18 11.5 24.5t19.5 8.5h248q2 0 10 -2t17 -10q2 -2 5 -7t3 -14l4 -8l287 -641l290 652q0 16 11.5 22t19.5 8h248q2 0 10 -2t15 -10q4 -4 7 -8t3 -15v-6v-749q0 -57 26 -84q10 -10 23 -15q8 -4 10 -4h4v-18q-6 0 -16 -3 t-20.5 -14.5t-18.5 -32t-8 -53.5v-456q0 -20 -12.5 -26.5t-20.5 -6.5h-240h-8q-2 0 -9 1t-15 9q-4 4 -7.5 9.5t-3.5 15.5v641l-153 -346q0 -2 -9.5 -17.5t-31.5 -15.5h-182h-7q-16 0 -24 14.5t-12 20.5l-156 346l2 -645q0 -20 -11.5 -26.5t-19.5 -6.5h-241h-7q-2 0 -10 1 t-16 9t-8 25l-2 457q0 33 -11 59q-4 12 -12 18q0 2 -4 6q-18 14 -27 17q-8 2 -12 2z" />
<glyph unicode="n" horiz-adv-x="1153" d="M-2 594v16l9 2t20.5 9.5t20.5 25t13 47.5v776q0 18 11.5 24.5t21.5 8.5h248q16 0 24.5 -14t8.5 -19l4 -8l276 -669v677q0 18 12.5 24.5t20.5 8.5h248q2 0 9 -2t16 -10q4 -4 7 -8t3 -15v-6v-749q0 -57 26 -84q10 -10 25.5 -14.5t13.5 -4.5v-16h-4q-4 0 -14 -4t-20.5 -15.5 t-18.5 -32t-8 -53.5v-456q0 -20 -12.5 -26.5t-20.5 -6.5h-244h-4q-16 0 -24.5 13.5t-8.5 17.5l-282 680v-678q0 -20 -11.5 -26.5t-19.5 -6.5h-242h-6q-2 0 -9 1t-15 9q-4 4 -7.5 9.5t-3.5 15.5v477q0 10 -2 19.5t-6 19.5q-4 4 -6 9t-6 9q-2 2 -2 3t-2 3q-18 14 -27 17 q-8 2 -12 2z" />
<glyph unicode="o" horiz-adv-x="1142" d="M0 594v16l10 2t22.5 12.5t23 31t10.5 59.5v483q0 76 22.5 127t56 85t72.5 52.5t73 27.5t56 11l23 2h297q2 0 25.5 -2t57 -10t71.5 -27.5t73 -52.5q4 -4 9 -10t9 -10q61 -78 62 -195v-483q0 -57 26 -84q8 -8 18.5 -12.5t20.5 -6.5v-16q-39 0 -52 -35t-13 -70v-184 q0 -76 -22.5 -127t-56.5 -86t-73 -53.5t-72.5 -26.5t-56.5 -10l-24 -2h-297q-2 0 -21.5 1t-49.5 8t-65.5 21.5t-68.5 41.5q-4 4 -10 9t-11 9q-80 80 -79 217v185q0 33 -11 59q-4 4 -6 9t-6 9q-2 2 -2 3t-2 3q-18 14 -27 17q-8 2 -12 2zM379 354q0 -18 10 -28t19.5 -11.5 t11.5 -1.5h196q2 0 22.5 6.5t20.5 36.5v791v2q0 16 -10 27q-4 4 -10 6t-10 4q-6 2 -11 2h-196l-7 -1q-7 -1 -15.5 -4t-14.5 -12.5t-6 -23.5v-793z" />
<glyph unicode="p" horiz-adv-x="1105" d="M0 594v16l10 2t22.5 12.5t23 31t10.5 59.5v755q0 18 11 24.5t19 8.5h570q2 0 25.5 -2t57 -11t72.5 -28.5t72 -52.5q6 -4 11 -10t9 -10q59 -78 60 -193v-446q0 -76 -21.5 -127.5t-55.5 -85t-73 -52t-72.5 -26.5t-56.5 -11l-24 -2h-275q0 -2 -8 -4t-8 -14v-397 q0 -18 -11.5 -24.5t-21.5 -6.5h-240h-8q-4 0 -8 2t-8 3t-8 5q-8 8 -8 23v459q0 33 -11 59q-4 4 -6 9t-6 9q-2 2 -2 3t-2 3q-18 14 -27 17q-8 2 -12 2zM379 774q0 -6 4 -10q2 -4 10 -4h223l8 1q7 1 15 4t14 11t6 25v346v2q0 16 -10 27q-4 4 -10 6t-10 4q-6 2 -11 2h-221 q-4 0 -11 -2t-7 -15v-397z" />
<glyph unicode="q" horiz-adv-x="1202" d="M0 594v16l10 2t22.5 12.5t23 31t10.5 59.5v483q0 76 22.5 127t56 85t72.5 52.5t73 27.5t56 11l23 2h297q2 0 25.5 -2t57 -10t71.5 -27.5t73 -52.5q4 -4 9 -10t11 -10q59 -78 60 -195v-483q0 -57 26 -84q10 -10 18.5 -12.5t20.5 -6.5v-16q-37 0 -51 -35t-14 -70v-135 q0 -18 10 -28q4 -4 10 -6.5t11 -4.5q6 -2 10 -2h84q2 0 9 -1t15 -9q10 -10 11 -22v-9v-239q0 -20 -12.5 -26.5t-20.5 -6.5h-729q-2 0 -21.5 1t-49.5 8t-65.5 21.5t-68.5 41.5q-4 4 -10 9t-11 9q-80 80 -79 217v185q0 33 -11 59q-4 4 -6 9t-6 9q-2 2 -2 3t-2 3q-18 14 -27 17 q-8 2 -12 2zM379 354q0 -18 10 -28t19.5 -11.5t11.5 -1.5h196q2 0 22.5 6.5t20.5 36.5v791v2q0 16 -10 27q-4 4 -10 6t-10 4q-6 2 -11 2h-196l-7 -1q-7 -1 -15.5 -4t-14.5 -12.5t-6 -23.5v-793z" />
<glyph unicode="r" d="M0 594v16l10 2t22.5 12.5t23 31t10.5 59.5v755q0 18 11 24.5t19 8.5h570q2 0 25.5 -2t57 -11t72.5 -28.5t72 -52.5q6 -4 11 -10t9 -10q59 -78 60 -193v-483q0 -53 -17.5 -77t-35.5 -34q4 -4 10 -7t10 -7q29 -29 33 -92v-463q0 -18 -11.5 -25.5t-21.5 -7.5h-240h-4 q-12 0 -26 10q-4 4 -5 7t-3 8q-2 4 -3 8v375q0 18 -10 28q-4 6 -12 7t-12 3h-230l-8 -4q-8 -4 -8 -14v-395q0 -10 -6 -21.5t-29 -11.5h-238h-10q-14 0 -24 10q-6 8 -6 15.5v9.5v457q0 33 -11 59q-4 4 -6 9t-6 9q-2 2 -2 3t-2 3q-18 14 -27 17q-8 2 -12 2zM379 774 q0 -6 4 -10q2 -4 10 -4h223l8 1q7 1 15 4t14 11t6 25v346v2q0 16 -10 27q-4 4 -10 6t-10 4q-6 2 -11 2h-221q-4 0 -11 -2t-7 -15v-397z" />
<glyph unicode="s" horiz-adv-x="1038" d="M-2 752l2 446q0 76 21.5 127t55.5 86t72.5 53.5t72.5 26.5t58 10l23 2h569q2 0 10.5 -1t14.5 -9q4 -4 7 -9t3 -16v-6v-241q0 -18 -11 -24.5t-22 -6.5h-419q-31 0 -56.5 -2t-44 -15.5t-30 -43t-11.5 -82.5v-150q0 -74 31 -104q16 -12 25 -17q27 -12 60.5 -14t68.5 -2h149 q2 0 19.5 -1t43 -9.5t56.5 -23.5t59 -42q4 -4 10.5 -10t10.5 -12q61 -78 61 -209v-148q0 -76 -21.5 -127t-55 -86t-72.5 -53.5t-73 -26.5t-57 -10l-24 -2h-563h-8q-2 0 -9.5 1t-15.5 9t-8 25v248q0 18 11.5 24t19.5 6h493q2 0 17.5 3t31.5 16q8 8 14.5 19t6.5 30q0 10 -2 20 q-2 12 -14 25q-14 14 -33 18q-8 2 -19 2h-219q-2 0 -18.5 1.5t-41 5.5t-55 14t-61.5 29q-8 6 -16.5 11t-14.5 11q-102 80 -102 234z" />
<glyph unicode="t" horiz-adv-x="1036" d="M0 1223v247q0 18 11.5 25.5t21.5 7.5h841q4 0 9 -2q4 -2 8 -3t8 -5q8 -8 8 -25v-6v-241q0 -18 -11 -25.5t-19 -7.5h-248q-4 0 -11.5 -2t-7.5 -15v-458q0 -53 27 -84q18 -18 39 -19v-16q-37 0 -51.5 -35t-14.5 -70v-456q0 -20 -11 -26.5t-19 -6.5h-248q-2 0 -10.5 1 t-14.5 9q-10 6 -10 25v457q0 33 -10 59q-4 12 -11 18l-6 6q-18 14 -26 17q-8 2 -13 2v16q2 0 12.5 2t23 12.5t21.5 31t9 59.5v432v27q0 6 -4 10q-2 4 -6 4h-6h-240h-6q-2 0 -10.5 2t-16.5 8q-8 8 -8 25z" />
<glyph unicode="u" horiz-adv-x="1153" d="M0 594v16l10 2t22.5 12.5t23 31t10.5 59.5v755q0 18 11 24.5t19 6.5h248q2 0 10 -1t17 -9q8 -8 8 -23v-8v-1108q0 -16 10 -26t19.5 -11.5t11.5 -1.5h196l8 1q7 1 15 4.5t14 11.5t6 24v1116q0 18 11.5 24.5t19.5 6.5h248q2 0 10 -1t17 -9q8 -8 8 -23v-8v-747q0 -59 26 -84 q6 -6 12.5 -9.5t12.5 -7.5q4 -2 10 -2h4v-12v-4h-4q-4 0 -14 -4t-20.5 -15.5t-18.5 -32t-8 -53.5v-186q0 -113 -47 -174t-104.5 -90t-104.5 -34t-49 -5h-297q-2 0 -21.5 1t-49.5 8t-65.5 21.5t-68.5 41.5q-14 8 -21 18q-80 80 -79 215v187q0 33 -11 57q-4 8 -12 20 q-2 2 -2 3t-2 3q-14 10 -27 15q-8 2 -12 4z" />
<glyph unicode="v" horiz-adv-x="1028" d="M-2 1468v2q0 18 11 25.5t20 7.5h247q2 0 10.5 -2t16.5 -8q4 -4 6 -9t2 -16l2 -6l129 -743l150 754q4 23 15 26.5t16 3.5h258q2 0 10 -2t12 -10q5 -5 5 -12q0 -6 -3 -13v-4q-4 -16 -18.5 -86.5t-36 -176t-48 -234.5t-52.5 -260q-1 -6 -1 -11q0 -27 16 -51q19 -29 48 -33 v-16h-2q-6 0 -19.5 -2t-28.5 -10.5t-29.5 -23.5t-22.5 -42q-29 -133 -52 -240q-10 -45 -18 -89t-16.5 -78.5t-12.5 -56.5l-4 -21q-4 -10 -9 -15.5t-9 -9.5q-6 -4 -10 -6h-2h-244h-4q-6 0 -17.5 7t-17.5 26q-2 6 -27.5 126t-72.5 355q-2 10 -11 27q-14 22 -32 34 q-20 14 -38 16.5t-22 2.5h-2v16q2 0 14.5 2t26.5 11.5t22.5 29t2.5 52.5z" />
<glyph unicode="w" horiz-adv-x="1619" d="M-18 1468v2q0 16 11 23.5t19 7.5h248q2 0 10.5 -1t16.5 -9t8 -23l2 -8l129 -743q4 12 13.5 58t22.5 111.5t28.5 142.5t30 152.5t27.5 141.5t21.5 109t10.5 56t-5 -18q4 23 15.5 27t15.5 4h256q2 0 9.5 -1t13.5 -7t6 -16q0 -4 1 -5.5t1 -3.5v-8l131 -743q2 12 10 58 t21.5 111.5t29 143.5t30.5 154t28.5 143.5t23 110.5t11.5 54t-4 -22q4 23 15 27t15 4h256q2 0 10.5 -1t14.5 -9q3 -6 3 -12.5t-3 -14.5v-4q-4 -16 -18.5 -86.5t-36 -176t-48 -234.5t-53.5 -261q-4 -33 13.5 -60.5t50.5 -31.5v-16h-2q-6 0 -19.5 -2t-29 -10.5t-30 -23.5 t-22.5 -42l-6 -29q-31 -152 -49 -240.5t-28.5 -137t-14.5 -63.5t-4 -17q-4 -10 -9 -15.5t-10 -9.5q-6 -4 -10 -4h-246h-2q-8 0 -19 5t-15 26q-4 20 -14.5 67t-24 108.5t-27.5 131.5t-28.5 138.5t-28 130t-21.5 104.5l-141 -682q-6 -20 -17.5 -24.5t-13.5 -4.5h-244h-4 q-6 0 -18 6t-16 25q0 2 -4.5 18.5t-14.5 67.5t-29.5 145t-52.5 252q-4 6 -5 12t-5 13q-14 20 -33 36q-20 12 -37.5 15.5t-21.5 3.5h-2v16q2 0 11 2t21.5 11.5t21.5 28t11 53.5q-29 141 -57.5 276t-50.5 246q-27 127 -49 241z" />
<glyph unicode="x" horiz-adv-x="1013" d="M-8 24q-1 2 -1 3q0 4 3 10l297 715l-297 714q-2 12 2 21q6 10 20.5 13t16.5 3h231q8 0 21.5 -7t21.5 -23l4 -13l138 -327l141 340q8 23 22.5 26.5t16.5 3.5h233q4 0 17.5 -3t19.5 -13q8 -8 2 -21l-2 -4l-293 -712l295 -715q3 -8 3 -12t-3 -11q-4 -10 -13 -11t-14 -1h-247 q-8 0 -19.5 6t-17.5 25l-141 340l-142 -342q-10 -23 -24.5 -26t-16.5 -3h-229h-4q-4 0 -16.5 2t-20.5 12q-2 4 -4 10z" />
<glyph unicode="y" horiz-adv-x="1011" d="M-16 1468q-1 3 -1 7q0 6 3 12q6 10 20 13t17 3h231q10 -2 22.5 -8t20.5 -22l2 -13l139 -610l140 623q10 23 24 26.5t16 3.5h234q4 0 17.5 -3t19.5 -13q5 -5 5 -11q0 -4 -3 -10v-4l-297 -1009v-420q2 -10 -5 -21.5t-28 -11.5h-239h-5q-4 0 -12 1t-14 9q-4 4 -7 9.5 t-3 15.5v39v381z" />
<glyph unicode="z" horiz-adv-x="1042" d="M0 35v254q0 29 8 47t8 20l512 815q4 6 4 13q-2 4 -6 4h-6h-479h-6q-2 0 -10.5 2t-16.5 10t-8 23v247q0 18 11.5 25.5t21.5 7.5h841q4 0 10.5 -2t14.5 -8q8 -8 8 -25v-6v-282q0 -35 -7 -50.5t-11 -19.5l-510 -780q-6 -8 -2 -13q4 -4 12 -4h485q2 0 9.5 -1t15.5 -9t8 -22 v-9v-239q0 -20 -11 -26.5t-19 -6.5h-836h-8q-2 0 -9.5 1t-15.5 9t-8 25z" />
<glyph unicode="&#xc4;" horiz-adv-x="1216" />
<glyph unicode="&#xe3;" horiz-adv-x="1705" />
<glyph unicode="&#x2000;" horiz-adv-x="803" />
<glyph unicode="&#x2001;" horiz-adv-x="1606" />
<glyph unicode="&#x2002;" horiz-adv-x="803" />
<glyph unicode="&#x2003;" horiz-adv-x="1606" />
<glyph unicode="&#x2004;" horiz-adv-x="535" />
<glyph unicode="&#x2005;" horiz-adv-x="401" />
<glyph unicode="&#x2006;" horiz-adv-x="267" />
<glyph unicode="&#x2007;" horiz-adv-x="267" />
<glyph unicode="&#x2008;" horiz-adv-x="200" />
<glyph unicode="&#x2009;" horiz-adv-x="321" />
<glyph unicode="&#x200a;" horiz-adv-x="89" />
<glyph unicode="&#x2018;" horiz-adv-x="444" d="M0 950v248q0 102 21.5 161.5t50 91.5t60.5 41t54 9h35h25h2q6 0 10 -4t4 -10v-29v-74q0 -8 -4 -11t-8 -3q-53 0 -67.5 -29.5t-16.5 -68.5v-8q0 -20 12 -27.5t27 -7.5h2h2h63h7q2 0 10 -1t16 -7q4 -4 6 -9.5t2 -15.5v-8v-2v-238q0 -18 -11 -25.5t-19 -7.5h-240h-8 q-2 0 -10.5 1.5t-16.5 9.5t-8 24z" />
<glyph unicode="&#x2019;" horiz-adv-x="430" d="M0 1221v247q0 20 11.5 26.5t21.5 6.5h246q2 0 10 -1t16 -9t8 -25v-6v-241q0 -102 -21.5 -162t-50 -90.5t-61.5 -39.5t-53 -9h-35h-24h-2h-5q-2 0 -6 4t-4 8v102q0 8 4 11.5t8 3.5q53 0 67.5 29.5t16.5 70.5v6q0 20 -12 27.5t-26 7.5h-3h-65h-6q-2 0 -10.5 1t-16.5 9 t-8 23z" />
<glyph unicode="&#x201c;" horiz-adv-x="882" d="M0 950v6v242q0 102 21.5 161.5t50 91.5t60.5 41t54 9h35h25h2q6 0 10 -4t4 -10v-29v-74q0 -8 -4 -11t-8 -3q-53 0 -67.5 -29.5t-16.5 -68.5v-8q0 -20 12 -27.5t27 -7.5h2h2h63h7q2 0 10 -1t16 -7q2 -4 5 -8.5t3 -12.5v-4v-10v-238q0 -18 -11 -25.5t-19 -7.5h-240h-8 q-2 0 -10.5 1.5t-16.5 9.5t-8 24zM436 950v248q0 102 21.5 161.5t50.5 91.5t60.5 41t54.5 9h2h34h25h2h4q2 0 6 -4t4 -10v-29v-74q0 -8 -5 -11t-9 -3q-51 0 -65.5 -29.5t-18.5 -68.5v-8q0 -20 12.5 -27.5t28.5 -7.5h2h2h64h6q2 0 9 -1t15 -7q4 -4 7.5 -9.5t3.5 -15.5v-8v-2 v-238q0 -18 -12.5 -25.5t-20.5 -7.5h-240h-8q-2 0 -9 1.5t-16 9.5q-10 10 -10 24z" />
<glyph unicode="&#x201d;" horiz-adv-x="870" d="M0 1221v247q0 20 11.5 26.5t21.5 6.5h246q2 0 10 -1t16 -9t8 -25v-6v-241q0 -102 -21.5 -162t-50 -90.5t-61.5 -39.5t-53 -9h-35h-24h-2h-5q-2 0 -6 4t-4 8v102q0 8 4 11.5t8 3.5q53 0 67.5 29.5t16.5 70.5v6q0 20 -12 27.5t-26 7.5h-3h-65h-6q-2 0 -10.5 1t-16.5 9 t-8 23zM436 1221v247q0 20 12.5 26.5t20.5 6.5h248q2 0 9 -1t15 -9q4 -4 7.5 -9t3.5 -16v-6v-241q0 -102 -21.5 -162t-50.5 -90.5t-61.5 -39.5t-53.5 -9h-2h-33h-26h-2h-4q-2 0 -6 4q0 2 -2.5 3t-2.5 5v102q0 8 5.5 11.5t9.5 3.5q53 0 67.5 29.5t16.5 70.5v6 q0 20 -12.5 27.5t-28.5 7.5h-68h-6q-2 0 -9 1t-16 9q-4 4 -7 8t-3 15z" />
<glyph unicode="&#x202f;" horiz-adv-x="321" />
<glyph unicode="&#x205f;" horiz-adv-x="401" />
<glyph unicode="&#x25fc;" horiz-adv-x="1505" d="M0 0v1505h1505v-1505h-1505z" />
</font>
</defs>
</svg>
